<?xml version="1.0" encoding="UTF-8"?>
<svg xmlns="http://www.w3.org/2000/svg" xmlns:xlink="http://www.w3.org/1999/xlink" width="25px" height="25px" viewBox="0 0 25 25" version="1.1">
<g id="surface1">
<path style=" stroke:none;fill-rule:evenodd;fill:rgb(100%,100%,100%);fill-opacity:1;" d="M 1.5625 12.5 C 1.5625 12.070312 1.914062 11.71875 2.34375 11.71875 L 20.769531 11.71875 L 15.851562 6.804688 C 15.546875 6.496094 15.546875 6.003906 15.851562 5.695312 C 16.160156 5.390625 16.652344 5.390625 16.960938 5.695312 L 23.210938 11.945312 C 23.355469 12.09375 23.4375 12.292969 23.4375 12.5 C 23.4375 12.707031 23.355469 12.90625 23.210938 13.054688 L 16.960938 19.304688 C 16.652344 19.609375 16.160156 19.609375 15.851562 19.304688 C 15.546875 18.996094 15.546875 18.503906 15.851562 18.195312 L 20.769531 13.28125 L 2.34375 13.28125 C 1.914062 13.28125 1.5625 12.929688 1.5625 12.5 Z M 1.5625 12.5 "/>
</g>
</svg>
