<!--?xml version="1.0" standalone="no"?-->
              <svg id="sw-js-blob-svg" viewBox="0 0 100 100" xmlns="http://www.w3.org/2000/svg" version="1.1">
                    <defs> 
                        <linearGradient id="sw-gradient" x1="0" x2="1" y1="1" y2="0">
                            <stop id="stop1" stop-color="rgba(242, 244, 255, 1)" offset="0%"></stop>
                            <stop id="stop2" stop-color="rgba(251, 168, 31, 1)" offset="100%"></stop>
                        </linearGradient>
                    </defs>
                <path fill="rgba(242, 244, 255, 1)" d="M18,-20.2C23.5,-16.9,28.2,-11.3,31.7,-3.7C35.3,3.9,37.8,13.6,33.8,18.7C29.9,23.8,19.4,24.3,10.1,27.5C0.8,30.8,-7.4,36.7,-14.6,35.9C-21.8,35.1,-28.1,27.5,-30,19.6C-31.9,11.7,-29.4,3.5,-28.7,-5.9C-28.1,-15.2,-29.2,-25.7,-24.8,-29.2C-20.3,-32.8,-10.1,-29.3,-1.9,-27C6.3,-24.7,12.6,-23.6,18,-20.2Z" width="100%" height="100%" transform="translate(50 50)" stroke-width="0" style="transition: all 0.3s ease 0s;"></path>
              </svg>