<!--?xml version="1.0" standalone="no"?-->
              <svg id="sw-js-blob-svg" viewBox="0 0 100 100" xmlns="http://www.w3.org/2000/svg" version="1.1">
                    <defs> 
                        <linearGradient id="sw-gradient" x1="0" x2="1" y1="1" y2="0">
                            <stop id="stop1" stop-color="rgba(242, 244, 255, 1)" offset="0%"></stop>
                            <stop id="stop2" stop-color="rgba(251, 168, 31, 1)" offset="100%"></stop>
                        </linearGradient>
                    </defs>
                <path fill="rgba(242, 244, 255, 1)" d="M20.3,-24.1C27.8,-17.9,36.4,-12.9,39,-5.7C41.6,1.5,38.3,10.8,32.7,17.4C27.2,24,19.3,27.7,10.8,31.7C2.3,35.6,-6.8,39.7,-15,38.1C-23.1,36.5,-30.3,29.1,-32.2,20.9C-34.1,12.8,-30.7,4,-28.9,-5C-27.2,-13.9,-27.1,-23,-22.5,-29.8C-18,-36.6,-9,-41,-1.3,-39.5C6.4,-37.9,12.8,-30.4,20.3,-24.1Z" width="100%" height="100%" transform="translate(50 50)" stroke-width="0" style="transition: all 0.3s ease 0s;"></path>
              </svg>