<!--?xml version="1.0" standalone="no"?-->
              <svg id="sw-js-blob-svg" viewBox="0 0 100 100" xmlns="http://www.w3.org/2000/svg" version="1.1">
                    <defs> 
                        <linearGradient id="sw-gradient" x1="0" x2="1" y1="1" y2="0">
                            <stop id="stop1" stop-color="rgba(183, 223, 157, 1)" offset="0%"></stop>
                            <stop id="stop2" stop-color="rgba(251, 168, 31, 1)" offset="100%"></stop>
                        </linearGradient>
                    </defs>
                <path fill="rgba(183, 223, 157, 1)" d="M17.3,-20.4C23.3,-15.5,29.8,-10.9,32.5,-4.4C35.1,2.1,34,10.5,29.9,16.8C25.7,23,18.5,27,10.7,30.1C3,33.2,-5.4,35.4,-14.2,34.3C-23.1,33.2,-32.5,28.7,-36.3,21.3C-40.1,14,-38.4,3.8,-35.5,-5.1C-32.5,-13.9,-28.4,-21.4,-22.3,-26.3C-16.2,-31.1,-8.1,-33.3,-1.2,-31.9C5.6,-30.4,11.2,-25.2,17.3,-20.4Z" width="100%" height="100%" transform="translate(50 50)" stroke-width="0" style="transition: all 0.3s ease 0s;"></path>
              </svg>